<?xml version="1.0" encoding="UTF-8"?><svg id="b" xmlns="http://www.w3.org/2000/svg" viewBox="0 0 216 216"><defs><style>.d{fill:#fff;opacity:0;}.e{fill:#ccc;}</style></defs><g id="c"><g><rect class="d" width="216" height="216"/><path class="e" d="M84.74,133.98c0-9.71,1.1-17.38,3.29-23.01,2.2-5.62,5.75-10.5,10.68-14.62,4.92-4.12,8.67-7.9,11.23-11.33,2.56-3.43,3.84-7.2,3.84-11.33,0-10.05-4.33-15.07-12.98-15.07-3.99,0-7.22,1.46-9.68,4.39-2.46,2.93-3.76,6.89-3.89,11.88H53.5c.13-13.31,4.32-23.67,12.58-31.09,8.25-7.42,19.83-11.13,34.74-11.13s26.33,3.43,34.49,10.28c8.15,6.85,12.23,16.6,12.23,29.25,0,5.52-1.1,10.55-3.29,15.07-2.2,4.53-5.72,9.15-10.58,13.87l-11.48,10.68c-3.26,3.13-5.52,6.34-6.79,9.63-1.26,3.29-1.96,7.47-2.1,12.53h-28.55Zm-4.09,30.34c0-4.92,1.78-8.97,5.34-12.13,3.56-3.16,8-4.74,13.33-4.74s9.76,1.58,13.33,4.74c3.56,3.16,5.34,7.2,5.34,12.13s-1.78,8.97-5.34,12.13c-3.56,3.16-8,4.74-13.33,4.74s-9.77-1.58-13.33-4.74c-3.56-3.16-5.34-7.2-5.34-12.13Z"/></g></g></svg>