<?xml version="1.0" encoding="UTF-8"?><svg id="b" xmlns="http://www.w3.org/2000/svg" viewBox="0 0 288 293.59"><defs><style>.d{fill:#fff;}.e{opacity:0;}.e,.f{fill:#ccc;}.g{fill:#333;}</style></defs><g id="c"><g><path class="g" d="M223.2,48.79h-30.41c0-26.95-21.84-48.79-48.79-48.79s-48.79,21.84-48.79,48.79h-30.41L0,171.19l64.8,122.4H223.2l64.8-122.4L223.2,48.79Z"/><rect class="e" y="5.59" width="288" height="288"/><polygon class="d" points="100.8 216.35 120.74 216.35 120.74 153.98 167.26 216.35 187.2 216.35 187.2 127.99 167.26 127.99 167.26 185.16 120.74 127.99 100.8 127.99 100.8 216.35"/><g><polygon class="f" points="203.52 221.59 246.72 221.59 273.6 171.19 246.72 120.79 203.52 120.79 230.4 171.19 203.52 221.59"/><polygon class="f" points="192 243.19 96 243.19 52.8 243.19 72 279.19 216 279.19 235.2 243.19 192 243.19"/><polygon class="f" points="84.48 221.59 57.6 171.19 84.48 120.79 41.28 120.79 14.4 171.19 41.28 221.59 84.48 221.59"/></g><path class="f" d="M216,63.19h-39c1.93-4.41,3-9.28,3-14.4,0-19.88-16.12-36-36-36s-36,16.12-36,36c0,5.12,1.08,9.99,3,14.4h-39l-19.2,36H235.2l-19.2-36Zm-72,1.89c-9,0-16.29-7.3-16.29-16.29s7.3-16.29,16.29-16.29,16.29,7.3,16.29,16.29-7.3,16.29-16.29,16.29Z"/></g></g></svg>