<?xml version="1.0" encoding="UTF-8"?><svg id="b" xmlns="http://www.w3.org/2000/svg" xmlns:xlink="http://www.w3.org/1999/xlink" viewBox="0 0 574.87 144"><defs><style>.i{fill:url(#h);}.j{fill:url(#f);}.k{fill:url(#g);}.l{fill:url(#e);}.m{fill:url(#d);}.n{fill:#525252;}</style><linearGradient id="d" x1="76.6" y1="5" x2="76.6" y2="136.57" gradientUnits="userSpaceOnUse"><stop offset="0" stop-color="#fff"/><stop offset="1" stop-color="#c9c9c9"/></linearGradient><linearGradient id="e" x1="316.09" y1="9.86" x2="316.09" y2="137.96" xlink:href="#d"/><linearGradient id="f" x1="215.97" y1="31.4" x2="215.97" y2="139.01" xlink:href="#d"/><linearGradient id="g" x1="417.17" y1="31.4" x2="417.17" y2="139.01" xlink:href="#d"/><linearGradient id="h" x1="525.36" y1="31.4" x2="525.36" xlink:href="#d"/></defs><g id="c"><g><g><polygon class="m" points="103.74 136.57 49.56 65.46 49.56 136.57 5 136.57 5 5 49.47 5 103.65 76.12 103.65 5 148.21 5 148.21 136.57 103.74 136.57"/><path class="n" d="M143.21,10v121.57h-36.99L44.56,50.64v80.93H10V10H46.99l61.65,80.93V10h34.56M153.21,0h-54.56V61.3L54.95,3.94l-3-3.94H0V141.57H54.56v-61.3l43.7,57.36,3,3.94h51.95V0h0Z"/></g><g><path class="l" d="M335.28,137.96c-37.16,0-44.77-17.06-44.77-42.69v-31.65h-17.19v-29.63h17.19V9.86h41.26v24.14h27.09v29.63h-27.09v31.65c0,6.25,.82,8.44,10.02,8.44,2.96,0,6.7-.29,11.44-.89l5.63-.72v33.84l-4.33,.58c-7.04,.95-11.96,1.43-19.25,1.43Z"/><path class="n" d="M326.77,14.86v24.14h27.09v19.63h-27.09v36.65c0,9.75,3.9,13.44,15.02,13.44,3.34,0,7.33-.33,12.07-.94v23.79c-6.43,.87-11.29,1.39-18.58,1.39-34.21,0-39.77-14.42-39.77-37.69V58.63h-17.19v-19.63h17.19V14.86h31.26m10-10h-51.26V29h-17.19v39.63h17.19v26.65c0,11.47,1.13,24.5,9.51,34.13,8.04,9.25,20.84,13.55,40.26,13.55,7.54,0,12.82-.52,19.92-1.48l8.66-1.17v-43.89l-11.26,1.43c-4.53,.58-8.06,.86-10.81,.86s-4.17-.29-4.77-.47c-.11-.46-.25-1.37-.25-2.96v-26.65h27.09V29h-27.09V4.86h0Z"/></g><g><path class="j" d="M215.97,139.01c-28.67,0-62.14-14.09-62.14-53.8s33.47-53.8,62.14-53.8,62.14,14.09,62.14,53.8-33.47,53.8-62.14,53.8Zm0-76.24c-20.41,0-22.61,15.69-22.61,22.44s2.2,22.44,22.61,22.44,22.44-14.06,22.44-22.44-2.92-22.44-22.44-22.44Z"/><path class="n" d="M215.97,36.4c27.09,0,57.14,13.03,57.14,48.8s-30.05,48.8-57.14,48.8-57.14-13.03-57.14-48.8,30.05-48.8,57.14-48.8m0,76.24c19.1,0,27.44-12.33,27.44-27.44s-8.34-27.44-27.44-27.44-27.61,12.33-27.61,27.44,8.51,27.44,27.61,27.44m0-86.24c-17.04,0-32.85,4.56-44.51,12.83-14.8,10.5-22.62,26.39-22.62,45.97s7.82,35.48,22.62,45.97c11.66,8.27,27.47,12.83,44.51,12.83s32.85-4.56,44.51-12.83c14.8-10.5,22.62-26.39,22.62-45.97s-7.82-35.48-22.62-45.97c-11.66-8.27-27.47-12.83-44.51-12.83h0Zm0,76.24c-11.69,0-17.61-5.87-17.61-17.44s5.93-17.44,17.61-17.44,17.44,5.87,17.44,17.44-5.87,17.44-17.44,17.44h0Z"/></g><g><path class="k" d="M418.12,139.01c-30.15,0-60.58-16.64-60.58-53.8s30.42-53.8,60.58-53.8c18.07,0,34.47,6.47,45,17.75,10.04,10.77,14.7,25.75,13.48,43.34l-.18,2.64h.15l-.2,.86-.08,1.16h-.2l-.99,4.15c-5.74,23.96-26.5,37.7-56.97,37.7Zm-19.97-41.86c2.85,5.59,8.59,10.49,19.97,10.49,13.06,0,17.49-5.25,19.89-9.83l.35-.67h-40.2Zm36.25-28.06c-3.4-4.29-8.72-6.33-16.29-6.33s-13.12,2.16-16.99,6.33h33.27Z"/><path class="n" d="M418.12,36.4c27.09,0,56.27,15.8,53.49,55.75h-80.41c2.43,11.81,10.94,20.49,26.92,20.49,13.55,0,20.49-5.21,24.31-12.5h27.79c-5.91,24.66-28.66,33.87-52.1,33.87-26.57,0-55.58-13.89-55.58-48.8s29-48.8,55.58-48.8m-25.7,37.69h50.02c-2.95-9.73-10.25-16.33-24.31-16.33s-22.23,6.77-25.7,16.33m25.7-47.69c-16.64,0-32.16,4.72-43.71,13.28-14.31,10.6-21.87,26.35-21.87,45.53s7.56,34.92,21.87,45.53c11.55,8.56,27.07,13.28,43.71,13.28,32.49,0,55.6-15.53,61.83-41.54l.08-.32h.92l.38-5.39,1.58-6.62h-1.17c.67-17.85-4.47-33.15-14.96-44.39-11.47-12.29-29.2-19.34-48.66-19.34h0Zm-5.38,75.75h11.28c-1.66,.32-3.61,.49-5.9,.49-1.96,0-3.75-.16-5.38-.49h0Z"/></g><g><path class="i" d="M480.85,136.57V34h41.26v7.68c6.24-5.23,15.72-10.28,29.04-10.28,6.03,0,11.57,.65,15.21,1.79l3.51,1.1v36.81h-8.09l-1.06-.53c-2.88-1.44-8.84-3.12-16.17-3.12-18.55,0-22.44,11.64-22.44,21.4v47.72h-41.26Z"/><path class="n" d="M551.15,36.4c6.08,0,10.94,.69,13.72,1.56v28.14h-1.91c-3.47-1.74-10.25-3.65-18.41-3.65-19.8,0-27.44,11.98-27.44,26.4v42.72h-31.26V39h31.26v15.98c3.65-6.25,14.42-18.58,34.04-18.58m0-10c-9.32,0-17.37,2.32-24.04,5.88v-3.28h-51.26v112.57h51.26v-52.72c0-11.19,5.54-16.4,17.44-16.4,6.93,0,12.14,1.69,13.94,2.59l2.11,1.06h14.27V30.61l-7.02-2.19c-4.16-1.3-10.1-2.02-16.7-2.02h0Z"/></g></g></g></svg>