<?xml version="1.0" encoding="UTF-8"?><svg id="b" xmlns="http://www.w3.org/2000/svg" viewBox="0 0 216 216"><defs><style>.d{fill:#ccc;}</style></defs><g id="c"><g><path class="d" d="M0,0V57.6H216V0H0ZM208.8,41.76l-8.64,8.64-12.96-12.96-12.96,12.96-8.64-8.64,12.96-12.96-12.96-12.96,8.64-8.64,12.96,12.96,12.96-12.96,8.64,8.64-12.96,12.96,12.96,12.96Z"/><path class="d" d="M0,79.2v57.6H216v-57.6H0Zm208.8,41.76l-8.64,8.64-12.96-12.96-12.96,12.96-8.64-8.64,12.96-12.96-12.96-12.96,8.64-8.64,12.96,12.96,12.96-12.96,8.64,8.64-12.96,12.96,12.96,12.96Z"/><path class="d" d="M0,158.4v57.6H216v-57.6H0Zm208.8,41.76l-8.64,8.64-12.96-12.96-12.96,12.96-8.64-8.64,12.96-12.96-12.96-12.96,8.64-8.64,12.96,12.96,12.96-12.96,8.64,8.64-12.96,12.96,12.96,12.96Z"/></g></g></svg>