<?xml version="1.0" encoding="UTF-8"?><svg id="b" xmlns="http://www.w3.org/2000/svg" viewBox="0 0 216 216"><defs><style>.d{fill:#fff;opacity:0;}.e{fill:#ccc;}</style></defs><g id="c"><g><rect class="d" width="216" height="216"/><path class="e" d="M79.33,143.26c0-13.05,1.47-23.35,4.42-30.9,2.95-7.55,7.73-14.1,14.34-19.64,6.61-5.54,11.64-10.61,15.08-15.21,3.44-4.6,5.16-9.67,5.16-15.21,0-13.49-5.81-20.24-17.43-20.24-5.36,0-9.7,1.97-13,5.9-3.31,3.93-5.05,9.25-5.23,15.95H37.37c.18-17.87,5.81-31.79,16.89-41.76,11.08-9.96,26.63-14.95,46.65-14.95s35.37,4.6,46.32,13.81c10.95,9.21,16.42,22.3,16.42,39.28,0,7.42-1.48,14.17-4.42,20.24-2.95,6.08-7.69,12.29-14.21,18.63l-15.42,14.34c-4.38,4.2-7.42,8.51-9.12,12.94-1.7,4.42-2.64,10.03-2.81,16.82h-38.34Zm-5.5,40.75c0-6.61,2.39-12.04,7.17-16.29,4.78-4.24,10.75-6.37,17.9-6.37s13.11,2.12,17.9,6.37c4.78,4.25,7.17,9.67,7.17,16.29s-2.39,12.04-7.17,16.29c-4.78,4.25-10.75,6.37-17.9,6.37s-13.12-2.12-17.9-6.37c-4.78-4.24-7.17-9.67-7.17-16.29Z"/></g></g></svg>