<?xml version="1.0" encoding="UTF-8"?><svg id="b" xmlns="http://www.w3.org/2000/svg" viewBox="0 0 288 288"><defs><style>.d{fill:#fff;}.e{opacity:0;}.e,.f{fill:#ccc;}.g{fill:#333;}</style></defs><g id="c"><rect class="e" width="288" height="288"/><polygon class="g" points="64.8 288 223.2 288 288 165.6 223.2 43.2 194.4 43.2 194.4 14.4 158.4 0 129.6 0 93.6 14.4 93.6 43.2 64.8 43.2 0 165.6 64.8 288"/><polygon class="d" points="100.8 210.76 120.74 210.76 120.74 148.39 167.26 210.76 187.2 210.76 187.2 122.4 167.26 122.4 167.26 179.58 120.74 122.4 100.8 122.4 100.8 210.76"/><g><polygon class="f" points="203.52 216 246.72 216 273.6 165.6 246.72 115.2 203.52 115.2 230.4 165.6 203.52 216"/><polygon class="f" points="192 237.6 96 237.6 52.8 237.6 72 273.6 216 273.6 235.2 237.6 192 237.6"/><polygon class="f" points="84.48 216 57.6 165.6 84.48 115.2 41.28 115.2 14.4 165.6 41.28 216 84.48 216"/></g><path class="f" d="M216,57.6h-36s0-36,0-36l-36-14.4-36,14.4V57.6h-36s-19.2,36-19.2,36H235.2l-19.2-36ZM122.4,28.8l21.6-7.2,21.6,7.2v28.8h-43.2V28.8Z"/></g></svg>